<?xml version="1.0" encoding="UTF-8" standalone="no"?>
<!-- Created with Inkscape (http://www.inkscape.org/) -->
<svg
   xmlns:dc="http://purl.org/dc/elements/1.1/"
   xmlns:cc="http://web.resource.org/cc/"
   xmlns:rdf="http://www.w3.org/1999/02/22-rdf-syntax-ns#"
   xmlns:svg="http://www.w3.org/2000/svg"
   xmlns="http://www.w3.org/2000/svg"
   xmlns:xlink="http://www.w3.org/1999/xlink"
   xmlns:sodipodi="http://sodipodi.sourceforge.net/DTD/sodipodi-0.dtd"
   xmlns:inkscape="http://www.inkscape.org/namespaces/inkscape"
   inkscape:export-ydpi="90.000000"
   inkscape:export-xdpi="90.000000"
   inkscape:export-filename="/home/rageon/eigene_dateien/eigene_bilder/erlenmeyerkolbenfresser.png"
   width="210mm"
   height="297mm"
   id="svg2"
   sodipodi:version="0.32"
   inkscape:version="0.45.1"
   sodipodi:docbase="/home/rageon/pinpediq/artwork"
   sodipodi:docname="enemy.svg"
   inkscape:output_extension="org.inkscape.output.svg.inkscape">
  <defs
     id="defs3">
    <linearGradient
       id="linearGradient5384">
      <stop
         style="stop-color:#390000;stop-opacity:1.0000000;"
         offset="0.0000000"
         id="stop5386" />
      <stop
         style="stop-color:#942b00;stop-opacity:1.0000000;"
         offset="1.0000000"
         id="stop5388" />
    </linearGradient>
    <linearGradient
       id="linearGradient4616">
      <stop
         style="stop-color:#ff5435;stop-opacity:1.0000000;"
         offset="0.0000000"
         id="stop4618" />
      <stop
         style="stop-color:#ff392e;stop-opacity:1.0000000;"
         offset="0.50000000"
         id="stop4624" />
      <stop
         style="stop-color:#cb0000;stop-opacity:1.0000000;"
         offset="1.0000000"
         id="stop4620" />
    </linearGradient>
    <radialGradient
       inkscape:collect="always"
       xlink:href="#linearGradient4616"
       id="radialGradient4622"
       gradientTransform="matrix(1.146743,0,0,0.872035,-123.00242,-58.11138)"
       cx="305.04718"
       cy="628.09326"
       fx="305.04718"
       fy="628.09326"
       r="120.28807"
       gradientUnits="userSpaceOnUse" />
    <radialGradient
       inkscape:collect="always"
       xlink:href="#linearGradient5384"
       id="radialGradient5390"
       gradientTransform="matrix(1.150955,0,0,0.868844,-123.00242,-58.11138)"
       cx="310.79675"
       cy="648.40857"
       fx="314.01593"
       fy="649.84192"
       r="122.11330"
       gradientUnits="userSpaceOnUse" />
    <radialGradient
       inkscape:collect="always"
       xlink:href="#linearGradient4616"
       id="radialGradient2342"
       gradientUnits="userSpaceOnUse"
       gradientTransform="matrix(1.0031743,0.3730373,-0.2108199,0.5669384,400.94489,218.56626)"
       cx="285.6217"
       cy="648.60089"
       fx="285.6217"
       fy="648.60089"
       r="120.28807" />
    <radialGradient
       inkscape:collect="always"
       xlink:href="#linearGradient5384"
       id="radialGradient2344"
       gradientUnits="userSpaceOnUse"
       gradientTransform="matrix(1.150955,0,0,0.868844,222.71631,126.25934)"
       cx="310.79675"
       cy="648.40857"
       fx="314.01593"
       fy="649.84192"
       r="122.11330" />
  </defs>
  <sodipodi:namedview
     id="base"
     pagecolor="#ffffff"
     bordercolor="#666666"
     borderopacity="1.0"
     inkscape:pageopacity="0.0"
     inkscape:pageshadow="2"
     inkscape:zoom="2.065"
     inkscape:cx="612.36479"
     inkscape:cy="351.25061"
     inkscape:document-units="px"
     inkscape:current-layer="layer1"
     inkscape:window-width="1014"
     inkscape:window-height="686"
     inkscape:window-x="4"
     inkscape:window-y="102" />
  <metadata
     id="metadata4">
    <rdf:RDF>
      <cc:Work
         rdf:about="">
        <dc:format>image/svg+xml</dc:format>
        <dc:type
           rdf:resource="http://purl.org/dc/dcmitype/StillImage" />
      </cc:Work>
    </rdf:RDF>
  </metadata>
  <g
     inkscape:label="Layer 1"
     inkscape:groupmode="layer"
     id="layer1">
    <path
       style="fill:url(#radialGradient4622);fill-opacity:1;fill-rule:evenodd;stroke:#000000;stroke-width:1px;stroke-linecap:butt;stroke-linejoin:miter;stroke-opacity:1"
       d="M 92.665148,486.64915 C 218.93422,518.46896 260.35047,505.84204 208.83269,402.80648 C 269.44184,331.59073 438.6424,494.22529 327.02054,576.04765 C 186.10426,638.6771 67.916408,519.98418 92.665148,486.64915 z "
       id="path1362"
       sodipodi:nodetypes="cccc" />
    <path
       style="fill:url(#radialGradient5390);fill-opacity:1;fill-rule:evenodd;stroke:#000000;stroke-width:1px;stroke-linecap:butt;stroke-linejoin:miter;stroke-opacity:1"
       d="M 268.93677,550.79384 C 332.57638,508.36743 296.21089,408.36233 231.56112,399.27095 C 166.91136,390.17958 238.12711,481.59838 210.34793,483.61868 C 167.41644,481.09331 109.33266,453.31412 92.160068,487.6593 C 86.099158,508.8725 206.81239,578.06795 268.93677,550.79384 z "
       id="path1358"
       sodipodi:nodetypes="ccccc" />
    <path
       style="fill:#c1bca1;fill-opacity:1;fill-rule:evenodd;stroke:#000000;stroke-width:0.87866157px;stroke-linecap:butt;stroke-linejoin:miter;stroke-opacity:1"
       d="M 210.22438,421.54059 C 197.6881,431.33459 201.13618,444.19407 201.13618,444.19407 C 201.13618,444.19407 203.86629,433.81322 214.81241,431.79708 C 225.75852,429.78099 217.08279,419.70163 210.22438,421.54059 z "
       id="path3694" />
    <path
       style="fill:#d50b09;fill-opacity:1;fill-rule:evenodd;stroke:#000000;stroke-width:1px;stroke-linecap:butt;stroke-linejoin:miter;stroke-opacity:1"
       d="M 256.81493,381.59328 C 267.92661,388.66435 252.26925,400.2811 242.6728,397.25064 C 233.07635,394.22019 242.16772,377.55267 256.81493,381.59328 z "
       id="path1368" />
    <path
       style="fill:#d50b09;fill-opacity:1;fill-rule:evenodd;stroke:#000000;stroke-width:1px;stroke-linecap:butt;stroke-linejoin:miter;stroke-opacity:1"
       d="M 219.43929,395.73542 C 232.0662,396.74557 239.13727,382.09836 230.55097,379.0679 C 221.96467,376.03744 203.78193,398.2608 219.43929,395.73542 z "
       id="path1370" />
    <path
       style="fill:#c1bca1;fill-opacity:1;fill-rule:evenodd;stroke:#000000;stroke-width:0.72820193px;stroke-linecap:butt;stroke-linejoin:miter;stroke-opacity:1"
       d="M 212.95141,436.6487 C 202.35701,444.49641 204.94029,455.22364 204.94029,455.22364 C 204.94029,455.22364 207.42289,446.68125 216.53451,445.24364 C 225.64608,443.80603 218.67263,435.27093 212.95141,436.6487 z "
       id="path3696" />
    <path
       style="fill:#c1bca1;fill-opacity:1;fill-rule:evenodd;stroke:#000000;stroke-width:1.06872356px;stroke-linecap:butt;stroke-linejoin:miter;stroke-opacity:1"
       d="M 284.33683,449.7033 C 265.22692,452.73985 261.3203,468.45515 261.3203,468.45515 C 261.3203,468.45515 270.34106,459.01709 283.17672,463.32029 C 296.01236,467.62348 292.71836,451.78682 284.33683,449.7033 z "
       id="path3672" />
    <path
       style="fill:#c1bca1;fill-opacity:1;fill-rule:evenodd;stroke:#000000;stroke-width:0.90644759px;stroke-linecap:butt;stroke-linejoin:miter;stroke-opacity:1"
       d="M 293.71788,481.95542 C 277.91173,477.53894 269.34288,488.27291 269.34288,488.27291 C 269.34288,488.27291 279.63466,484.18666 288.00841,492.04295 C 296.38214,499.89923 299.44271,486.52548 293.71788,481.95542 z "
       id="path3674" />
    <path
       style="fill:#c1bca1;fill-opacity:1;fill-rule:evenodd;stroke:#000000;stroke-width:1.01016879px;stroke-linecap:butt;stroke-linejoin:miter;stroke-opacity:1"
       d="M 126.33764,476.27208 C 136.04867,460.73802 151.1258,463.15839 151.1258,463.15839 C 151.1258,463.15839 139.59906,467.52361 138.57765,480.30889 C 137.55625,493.09418 125.04065,484.3514 126.33764,476.27208 z "
       id="path3686" />
    <path
       style="fill:#c1bca1;fill-opacity:1;fill-rule:evenodd;stroke:#000000;stroke-width:0.8641867px;stroke-linecap:butt;stroke-linejoin:miter;stroke-opacity:1"
       d="M 203.78178,544.68091 C 204.22506,529.14603 216.50599,524.24394 216.50599,524.24394 C 216.50599,524.24394 209.83218,532.49259 214.65684,542.20156 C 219.48148,551.91058 206.34555,551.10383 203.78178,544.68091 z "
       id="path3682" />
    <path
       style="fill:#c1bca1;fill-opacity:1;fill-rule:evenodd;stroke:#000000;stroke-width:0.83902681px;stroke-linecap:butt;stroke-linejoin:miter;stroke-opacity:1"
       d="M 101.0991,481.60387 C 109.34303,461.09768 132.19921,461.14352 132.19921,461.14352 C 132.19921,461.14352 111.77477,478.74959 114.65694,487.2646 C 117.53913,495.77958 102.93685,493.76248 101.0991,481.60387 z "
       id="path3684" />
    <path
       style="fill:#c1bca1;fill-opacity:1;fill-rule:evenodd;stroke:#000000;stroke-width:0.802077px;stroke-linecap:butt;stroke-linejoin:miter;stroke-opacity:1"
       d="M 152.17909,478.45868 C 158.80696,465.64735 171.05044,466.4949 171.05044,466.4949 C 171.05044,466.4949 162.14754,470.70411 162.27118,480.76583 C 162.3948,490.82754 151.73581,484.86203 152.17909,478.45868 z "
       id="path3688" />
    <path
       style="fill:#c1bca1;fill-opacity:1;fill-rule:evenodd;stroke:#000000;stroke-width:0.64700997px;stroke-linecap:butt;stroke-linejoin:miter;stroke-opacity:1"
       d="M 174.02869,481.04723 C 178.37135,470.25239 188.26812,469.9967 188.26812,469.9967 C 188.26812,469.9967 181.44068,474.05769 182.30945,482.12812 C 183.17818,490.1986 174.16242,486.22322 174.02869,481.04723 z "
       id="path3690" />
    <path
       style="fill:#c1bca1;fill-opacity:1;fill-rule:evenodd;stroke:#000000;stroke-width:0.8605662px;stroke-linecap:butt;stroke-linejoin:miter;stroke-opacity:1"
       d="M 213.19632,403.2744 C 193.49707,414.48232 196.67874,437.72203 196.67874,437.72203 C 196.67874,437.72203 211.76131,414.52514 220.80613,416.28406 C 225.42095,415.73612 225.79901,403.46942 213.19632,403.2744 z "
       id="path3692"
       sodipodi:nodetypes="cccc" />
    <path
       style="fill:#c1bca1;fill-opacity:1;fill-rule:evenodd;stroke:#000000;stroke-width:0.70357901px;stroke-linecap:butt;stroke-linejoin:miter;stroke-opacity:1"
       d="M 237.49505,548.51123 C 235.57123,536.00546 244.68705,530.27823 244.68705,530.27823 C 244.68705,530.27823 240.55247,537.86296 245.84039,544.93044 C 251.12832,551.99797 240.49038,553.27882 237.49505,548.51123 z "
       id="path3700" />
    <path
       style="fill:#c1bca1;fill-opacity:1;fill-rule:evenodd;stroke:#000000;stroke-width:0.7506547px;stroke-linecap:butt;stroke-linejoin:miter;stroke-opacity:1"
       d="M 285.24353,519.63843 C 274.87072,510.8568 264.71474,515.97805 264.71474,515.97805 C 264.71474,515.97805 273.87241,516.45556 277.46308,525.26029 C 281.05371,534.065 287.9749,525.05498 285.24353,519.63843 z "
       id="path3702" />
    <path
       style="fill:#c1bca1;fill-opacity:1;fill-rule:evenodd;stroke:#000000;stroke-width:0.53724921px;stroke-linecap:butt;stroke-linejoin:miter;stroke-opacity:1"
       d="M 193.34051,482.9473 C 195.9995,473.65873 204.15125,472.59707 204.15125,472.59707 C 204.15125,472.59707 198.86144,476.53774 200.27247,483.12844 C 201.68343,489.71921 193.89573,487.21067 193.34051,482.9473 z "
       id="path3704" />
    <path
       style="fill:#c1bca1;fill-opacity:1;fill-rule:evenodd;stroke:#000000;stroke-width:0.59445602px;stroke-linecap:butt;stroke-linejoin:miter;stroke-opacity:1"
       d="M 217.66443,454.05299 C 207.8062,458.37202 207.9115,467.37875 207.9115,467.37875 C 207.9115,467.37875 211.44047,461.0319 218.95315,461.54459 C 226.46576,462.05727 222.46806,453.99681 217.66443,454.05299 z "
       id="path3706" />
    <path
       style="fill:#c1bca1;fill-opacity:1;fill-rule:evenodd;stroke:#000000;stroke-width:0.47995612px;stroke-linecap:butt;stroke-linejoin:miter;stroke-opacity:1"
       d="M 220.76977,469.40074 C 212.11378,468.63567 208.69508,475.05444 208.69508,475.05444 C 208.69508,475.05444 213.65567,471.92875 218.77679,475.20561 C 223.89783,478.48243 224.19317,471.22405 220.76977,469.40074 z "
       id="path3708" />
    <path
       style="fill:none;fill-opacity:0.75;fill-rule:evenodd;stroke:#000000;stroke-width:1px;stroke-linecap:butt;stroke-linejoin:miter;stroke-opacity:1"
       d="M 95.695608,502.81159 C 82.973398,521.8949 70.686178,528.79858 80.038238,556.85475 C 85.977788,563.9822 84.451168,560.36434 86.099158,566.95628"
       id="path3726" />
    <path
       style="fill:none;fill-opacity:0.75;fill-rule:evenodd;stroke:#000000;stroke-width:1px;stroke-linecap:butt;stroke-linejoin:miter;stroke-opacity:1"
       d="M 104.2819,516.44865 C 105.19787,519.19656 99.259008,519.45124 97.210838,521.49941 C 85.466468,533.24378 85.088998,556.78813 85.088998,572.00704"
       id="path3728" />
    <path
       style="fill:none;fill-opacity:0.75;fill-rule:evenodd;stroke:#000000;stroke-width:1px;stroke-linecap:butt;stroke-linejoin:miter;stroke-opacity:1"
       d="M 120.94942,531.60094 C 113.2072,534.18168 105.6015,540.5785 100.74637,550.28876"
       id="path3742" />
    <path
       style="fill:none;fill-opacity:0.75;fill-rule:evenodd;stroke:#000000;stroke-width:1px;stroke-linecap:butt;stroke-linejoin:miter;stroke-opacity:1"
       d="M 110.11168,522.98895 C 99.480858,526.53256 81.773658,543.80459 75.261418,556.82906 C 73.098038,561.15582 73.646498,570.16706 75.261418,575.01181"
       id="path3744" />
    <path
       style="fill:none;fill-opacity:0.75;fill-rule:evenodd;stroke:#000000;stroke-width:1px;stroke-linecap:butt;stroke-linejoin:miter;stroke-opacity:1"
       d="M 117.68783,528.33078 C 114.08487,535.5367 102.96002,536.815 100.51523,549.03891 C 100.05779,551.32614 97.020058,557.03942 95.464468,560.15059"
       id="path3746" />
    <path
       style="fill:none;fill-opacity:0.75;fill-rule:evenodd;stroke:#000000;stroke-width:1px;stroke-linecap:butt;stroke-linejoin:miter;stroke-opacity:1"
       d="M 113.69858,525.19759 C 113.60605,525.66025 104.37577,533.62597 102.5869,536.30927 C 96.998668,544.69162 93.062358,552.65318 90.970148,562.06816"
       id="path3748" />
    <path
       style="fill:none;fill-opacity:0.75;fill-rule:evenodd;stroke:#000000;stroke-width:1px;stroke-linecap:butt;stroke-linejoin:miter;stroke-opacity:1"
       d="M 105.06092,521.48229 C 95.440318,535.91319 83.903618,551.59122 78.796948,569.46454"
       id="path3750" />
    <path
       style="fill:none;fill-opacity:0.75;fill-rule:evenodd;stroke:#000000;stroke-width:1px;stroke-linecap:butt;stroke-linejoin:miter;stroke-opacity:1"
       d="M 96.311968,519.13668 C 90.405438,527.99647 86.132278,541.6727 83.685058,551.46156"
       id="path3752" />
    <path
       style="fill:none;fill-opacity:0.75;fill-rule:evenodd;stroke:#000000;stroke-width:1px;stroke-linecap:butt;stroke-linejoin:miter;stroke-opacity:1"
       d="M 103.77683,514.42834 C 88.354578,526.76614 79.028088,545.3056 79.028088,566.95628"
       id="path3764" />
    <path
       style="fill:none;fill-opacity:0.75;fill-rule:evenodd;stroke:#000000;stroke-width:1px;stroke-linecap:butt;stroke-linejoin:miter;stroke-opacity:1"
       d="M 97.210838,510.89281 C 92.171508,514.92427 90.131728,510.06442 83.573778,520.99433 C 76.034668,533.5595 68.946938,546.35004 71.957018,561.40044"
       id="path3766" />
    <path
       style="fill:none;fill-opacity:0.75;fill-rule:evenodd;stroke:#000000;stroke-width:1px;stroke-linecap:butt;stroke-linejoin:miter;stroke-opacity:1"
       d="M 93.675298,502.81159 C 84.860588,517.50278 80.543318,520.597 80.543318,541.70246"
       id="path3768" />
    <path
       style="fill:none;fill-opacity:0.75;fill-rule:evenodd;stroke:#000000;stroke-width:1px;stroke-linecap:butt;stroke-linejoin:miter;stroke-opacity:1"
       d="M 99.736218,511.90296 C 92.043608,524.72398 84.769088,536.88726 89.129608,554.32937"
       id="path3770" />
    <path
       style="fill:none;fill-opacity:0.75;fill-rule:evenodd;stroke:#000000;stroke-width:1px;stroke-linecap:butt;stroke-linejoin:miter;stroke-opacity:1"
       d="M 108.32251,519.47911 C 103.9439,526.77679 94.685448,537.83785 94.685448,549.27861"
       id="path3772" />
    <path
       style="fill:none;fill-opacity:0.75;fill-rule:evenodd;stroke:#000000;stroke-width:1px;stroke-linecap:butt;stroke-linejoin:miter;stroke-opacity:1"
       d="M 99.231138,513.92327 C 96.293128,518.81994 89.634688,517.47088 89.634688,530.59078 C 89.634688,533.63989 88.961258,536.6517 88.624538,539.68216"
       id="path3774" />
    <path
       style="fill:none;fill-opacity:0.75;fill-rule:evenodd;stroke:#000000;stroke-width:1px;stroke-linecap:butt;stroke-linejoin:miter;stroke-opacity:1"
       d="M 116.20684,530.5651 C 116.20684,533.44201 110.59256,532.1154 108.12562,533.59556 C 96.996238,540.27318 91.937578,544.80966 88.932718,556.82906"
       id="path3776" />
    <path
       style="fill:none;fill-opacity:0.75;fill-rule:evenodd;stroke:#000000;stroke-width:1px;stroke-linecap:butt;stroke-linejoin:miter;stroke-opacity:1"
       d="M 119.71669,539.4767 C 107.531,546.78811 91.154408,549.90716 85.876578,565.74066"
       id="path3778" />
    <path
       style="fill:none;fill-opacity:0.75;fill-rule:evenodd;stroke:#000000;stroke-width:1px;stroke-linecap:butt;stroke-linejoin:miter;stroke-opacity:1"
       d="M 128.66254,536.34352 C 128.17974,537.79191 109.49923,551.96389 105.42903,557.05164 C 103.38694,559.60425 101.72513,562.43912 99.873188,565.13286"
       id="path3780" />
    <path
       style="fill:none;fill-opacity:0.75;fill-rule:evenodd;stroke:#000000;stroke-width:1px;stroke-linecap:butt;stroke-linejoin:miter;stroke-opacity:1"
       d="M 130.15208,536.66882 C 126.45858,541.28569 119.40968,544.808 115.50487,551.31603 C 111.55804,557.89408 109.95722,561.12814 108.4338,567.98355"
       id="path3782" />
    <path
       style="fill:none;fill-opacity:0.75;fill-rule:evenodd;stroke:#000000;stroke-width:1px;stroke-linecap:butt;stroke-linejoin:miter;stroke-opacity:1"
       d="M 120.29025,540.25571 C 112.73716,545.29111 107.6349,550.18934 101.60243,557.42831"
       id="path3800" />
    <path
       style="fill:none;fill-opacity:0.75;fill-rule:evenodd;stroke:#000000;stroke-width:1px;stroke-linecap:butt;stroke-linejoin:miter;stroke-opacity:1"
       d="M 121.57434,549.27005 C 120.68838,549.86069 119.55404,549.94348 118.54389,550.2802 C 112.52761,552.28563 108.10131,557.18724 104.40175,560.8868"
       id="path3802" />
    <path
       style="fill:none;fill-opacity:0.75;fill-rule:evenodd;stroke:#000000;stroke-width:1px;stroke-linecap:butt;stroke-linejoin:miter;stroke-opacity:1"
       d="M 122.31056,533.93799 C 112.43962,533.93799 99.248538,555.71589 93.016138,562.72733"
       id="path3810" />
    <path
       style="fill:none;fill-opacity:0.75;fill-rule:evenodd;stroke:#000000;stroke-width:1px;stroke-linecap:butt;stroke-linejoin:miter;stroke-opacity:1"
       d="M 104.96675,516.22607 C 103.04272,516.22607 89.636238,549.44209 88.804308,553.60172"
       id="path3814" />
    <path
       style="fill:none;fill-opacity:0.75;fill-rule:evenodd;stroke:#000000;stroke-width:1px;stroke-linecap:butt;stroke-linejoin:miter;stroke-opacity:1"
       d="M 136.59823,544.89557 C 133.65315,544.89557 134.13502,550.38923 132.05254,552.47171 C 129.44162,555.08263 129.15814,559.27066 127.50685,562.57324"
       id="path3816" />
    <path
       style="fill:none;fill-opacity:0.75;fill-rule:evenodd;stroke:#000000;stroke-width:1px;stroke-linecap:butt;stroke-linejoin:miter;stroke-opacity:1"
       d="M 109.12721,523.08312 C 100.44635,531.76398 90.471218,535.48861 83.368318,547.32678 C 82.551148,548.68873 81.684728,550.02052 80.842938,551.36739"
       id="path3818" />
    <path
       style="fill:none;fill-opacity:0.75;fill-rule:evenodd;stroke:#000000;stroke-width:1px;stroke-linecap:butt;stroke-linejoin:miter;stroke-opacity:1"
       d="M 130.46026,540.81216 C 125.78789,548.59945 121.66289,555.50459 119.85366,564.55075"
       id="path3820" />
    <path
       style="fill:none;fill-opacity:0.75;fill-rule:evenodd;stroke:#000000;stroke-width:1px;stroke-linecap:butt;stroke-linejoin:miter;stroke-opacity:1"
       d="M 135.22853,544.90414 C 133.03958,548.55239 122.49859,550.42899 119.06609,555.00566 C 117.77246,556.7305 115.69891,557.6994 114.01533,559.04627"
       id="path3826" />
    <path
       style="fill:none;fill-opacity:0.75;fill-rule:evenodd;stroke:#000000;stroke-width:1px;stroke-linecap:butt;stroke-linejoin:miter;stroke-opacity:1"
       d="M 95.592878,508.29894 C 94.029338,516.11667 81.955818,526.26437 81.955818,539.10859"
       id="path3848" />
    <path
       style="fill:none;fill-opacity:0.75;fill-rule:evenodd;stroke:#000000;stroke-width:1px;stroke-linecap:butt;stroke-linejoin:miter;stroke-opacity:1"
       d="M 109.59805,525.13767 C 97.758568,531.05741 82.975638,540.17998 70.707178,549.38133"
       id="path3856" />
    <path
       style="fill:#610b09;fill-opacity:1;fill-rule:evenodd;stroke:#000000;stroke-width:0.64006758px;stroke-linecap:butt;stroke-linejoin:miter;stroke-opacity:1"
       d="M 252.4684,386.43839 C 259.59896,390.95271 249.55136,398.3691 243.39315,396.43439 C 237.23494,394.49968 243.06903,383.85877 252.4684,386.43839 z "
       id="path6942" />
    <path
       style="fill:#610b09;fill-opacity:1;fill-rule:evenodd;stroke:#000000;stroke-width:0.70794016px;stroke-linecap:butt;stroke-linejoin:miter;stroke-opacity:1"
       d="M 218.79723,396.03461 C 227.53023,396.76661 232.42072,386.15256 226.48227,383.95655 C 220.54383,381.76054 211.1826,395.36462 218.79723,396.03461 z "
       id="path6944"
       sodipodi:nodetypes="ccc" />
    <path
       style="fill:#c1bca1;fill-opacity:1;fill-rule:evenodd;stroke:#000000;stroke-width:1px;stroke-linecap:butt;stroke-linejoin:miter;stroke-opacity:1"
       d="M 235.60173,403.31156 C 213.37838,417.4537 218.42914,444.22274 218.42914,444.22274 C 218.42914,444.22274 234.59158,416.44355 245.19818,417.95877 C 255.80478,419.474 250.24894,402.80649 235.60173,403.31156 z "
       id="path3666" />
    <path
       style="fill:#c1bca1;fill-opacity:1;fill-rule:evenodd;stroke:#000000;stroke-width:1.18874633px;stroke-linecap:butt;stroke-linejoin:miter;stroke-opacity:1"
       d="M 265.106,422.09375 C 245.29256,430.49946 245.29256,448.51169 245.29256,448.51169 C 245.29256,448.51169 252.49745,435.90312 267.50764,437.10395 C 282.51783,438.30476 274.71252,422.09375 265.106,422.09375 z "
       id="path3668" />
    <path
       style="fill:#c1bca1;fill-opacity:1;fill-rule:evenodd;stroke:#000000;stroke-width:1.0479517px;stroke-linecap:butt;stroke-linejoin:miter;stroke-opacity:1"
       d="M 170.64252,534.26978 C 175.28933,516.00567 191.12161,513.46408 191.12161,513.46408 C 191.12161,513.46408 181.03594,521.45339 184.1684,534.22186 C 187.30084,546.99034 171.97176,542.55005 170.64252,534.26978 z "
       id="path3680" />
    <path
       style="fill:#c1bca1;fill-opacity:1;fill-rule:evenodd;stroke:#000000;stroke-width:0.91811502px;stroke-linecap:butt;stroke-linejoin:miter;stroke-opacity:1"
       d="M 109.47202,502.4822 C 117.54151,479.68358 142.53214,478.68198 142.53214,478.68198 C 142.53214,478.68198 121.01233,498.8704 124.55521,508.04719 C 128.0981,517.22397 112.0407,515.69057 109.47202,502.4822 z "
       id="path3676" />
    <path
       style="fill:#c1bca1;fill-opacity:1;fill-rule:evenodd;stroke:#000000;stroke-width:1.14810407px;stroke-linecap:butt;stroke-linejoin:miter;stroke-opacity:1"
       d="M 140.09327,519.04405 C 146.18473,499.13384 163.44868,497.35588 163.44868,497.35588 C 163.44868,497.35588 152.07847,505.53882 154.71808,519.87521 C 157.35768,534.21161 141.04602,528.2952 140.09327,519.04405 z "
       id="path3678" />
    <path
       sodipodi:type="arc"
       style="opacity:1;fill:#000000;fill-opacity:1;stroke:#00b500;stroke-width:1;stroke-linejoin:bevel;stroke-miterlimit:4;stroke-dasharray:1, 2;stroke-dashoffset:0;stroke-opacity:1"
       id="path2281"
       sodipodi:cx="468.43683"
       sodipodi:cy="565.43439"
       sodipodi:rx="13.696983"
       sodipodi:ry="16.43638"
       d="M 482.13381 565.43439 A 13.696983 16.43638 0 1 1  454.73985,565.43439 A 13.696983 16.43638 0 1 1  482.13381 565.43439 z"
       transform="translate(-131.90546,-73.178062)" />
    <path
       style="fill:url(#radialGradient2342);fill-opacity:1;fill-rule:evenodd;stroke:#000000;stroke-width:1px;stroke-linecap:butt;stroke-linejoin:miter;stroke-opacity:1"
       d="M 453.39598,664.24022 C 542.86118,670.87843 519.38639,690.21277 457.69912,654.0053 C 522.18236,572.1358 756.75822,620.00038 651.91602,744.92201 C 564.75277,825.9534 417.50923,704.83917 453.39598,664.24022 z "
       id="path2232"
       sodipodi:nodetypes="cccc" />
    <path
       style="fill:url(#radialGradient2344);fill-opacity:1;fill-rule:evenodd;stroke:#000000;stroke-width:1px;stroke-linecap:butt;stroke-linejoin:miter;stroke-opacity:1"
       d="M 592.86373,705.14036 C 568.85382,690.7993 493.43219,654.06341 459.12005,653.37534 C 468.45033,664.8203 467.51453,663.44821 452.40665,664.28185 C 459.90506,672.41999 574.80715,712.07548 592.86373,705.14036 z "
       id="path2234"
       sodipodi:nodetypes="cccc" />
    <path
       style="fill:#d50b09;fill-opacity:1;fill-rule:evenodd;stroke:#000000;stroke-width:1px;stroke-linecap:butt;stroke-linejoin:miter;stroke-opacity:1"
       d="M 498.41744,636.66619 C 509.52912,643.73726 493.87176,655.35401 484.27531,652.32355 C 474.67886,649.2931 483.77023,632.62558 498.41744,636.66619 z "
       id="path2238" />
    <path
       style="fill:#d50b09;fill-opacity:1;fill-rule:evenodd;stroke:#000000;stroke-width:1px;stroke-linecap:butt;stroke-linejoin:miter;stroke-opacity:1"
       d="M 464.91589,648.38702 C 477.5428,649.39717 484.61387,634.74996 476.02757,631.7195 C 467.44127,628.68904 449.25853,650.9124 464.91589,648.38702 z "
       id="path2240" />
    <path
       style="fill:none;fill-opacity:0.75;fill-rule:evenodd;stroke:#000000;stroke-width:1px;stroke-linecap:butt;stroke-linejoin:miter;stroke-opacity:1"
       d="M 452.72703,668.58664 C 447.10469,690.82213 437.82674,701.43138 456.00773,724.7565 C 463.98578,729.49248 461.33906,726.59172 465.09297,732.25545"
       id="path2270" />
    <path
       style="fill:none;fill-opacity:0.75;fill-rule:evenodd;stroke:#000000;stroke-width:1px;stroke-linecap:butt;stroke-linejoin:miter;stroke-opacity:1"
       d="M 465.37297,678.57534 C 467.15368,680.85988 461.64049,683.08238 460.39349,685.69676 C 453.2431,700.68785 460.74655,723.00773 465.82672,737.35371"
       id="path2272" />
    <path
       style="fill:none;fill-opacity:0.75;fill-rule:evenodd;stroke:#000000;stroke-width:1px;stroke-linecap:butt;stroke-linejoin:miter;stroke-opacity:1"
       d="M 486.14241,687.29479 C 479.70574,692.31191 474.6716,700.88063 473.33629,711.65462"
       id="path2274" />
    <path
       style="fill:none;fill-opacity:0.75;fill-rule:evenodd;stroke:#000000;stroke-width:1px;stroke-linecap:butt;stroke-linejoin:miter;stroke-opacity:1"
       d="M 473.05156,682.79448 C 464.2134,689.68347 453.28738,711.8756 451.49632,726.32682 C 450.90133,731.12755 454.42635,739.43885 457.56585,743.46663"
       id="path2276" />
    <path
       style="fill:none;fill-opacity:0.75;fill-rule:evenodd;stroke:#000000;stroke-width:1px;stroke-linecap:butt;stroke-linejoin:miter;stroke-opacity:1"
       d="M 481.9763,685.30094 C 480.98538,693.29623 470.92535,698.21476 472.7012,710.55361 C 473.0335,712.86234 472.07714,719.26193 471.64931,722.71392"
       id="path2278" />
    <path
       style="fill:none;fill-opacity:0.75;fill-rule:evenodd;stroke:#000000;stroke-width:1px;stroke-linecap:butt;stroke-linejoin:miter;stroke-opacity:1"
       d="M 477.17,683.6791 C 477.2372,684.14612 471.19537,694.73605 470.40481,697.86259 C 467.9352,707.62952 466.88229,716.44839 468.05287,726.02173"
       id="path2280" />
    <path
       style="fill:none;fill-opacity:0.75;fill-rule:evenodd;stroke:#000000;stroke-width:1px;stroke-linecap:butt;stroke-linejoin:miter;stroke-opacity:1"
       d="M 467.78757,683.06022 C 463.53594,699.87481 457.89439,718.50459 459.04688,737.05737"
       id="path2282" />
    <path
       style="fill:none;fill-opacity:0.75;fill-rule:evenodd;stroke:#000000;stroke-width:1px;stroke-linecap:butt;stroke-linejoin:miter;stroke-opacity:1"
       d="M 458.75748,683.76961 C 456.1472,694.09286 456.68435,708.41105 457.64508,718.45533"
       id="path2284" />
    <path
       style="fill:none;fill-opacity:0.75;fill-rule:evenodd;stroke:#000000;stroke-width:1px;stroke-linecap:butt;stroke-linejoin:miter;stroke-opacity:1"
       d="M 464.22248,676.8395 C 453.80327,693.61768 451.20034,714.20699 458.42747,734.61582"
       id="path2286" />
    <path
       style="fill:none;fill-opacity:0.75;fill-rule:evenodd;stroke:#000000;stroke-width:1px;stroke-linecap:butt;stroke-linejoin:miter;stroke-opacity:1"
       d="M 456.85292,675.69855 C 453.44838,681.18094 449.90334,677.28072 447.37003,689.77281 C 444.45768,704.13385 442.04606,718.55668 449.90742,731.73902"
       id="path2288" />
    <path
       style="fill:none;fill-opacity:0.75;fill-rule:evenodd;stroke:#000000;stroke-width:1px;stroke-linecap:butt;stroke-linejoin:miter;stroke-opacity:1"
       d="M 450.82261,669.26104 C 447.41751,686.05198 444.38076,690.40984 451.4259,710.30473"
       id="path2290" />
    <path
       style="fill:none;fill-opacity:0.75;fill-rule:evenodd;stroke:#000000;stroke-width:1px;stroke-linecap:butt;stroke-linejoin:miter;stroke-opacity:1"
       d="M 459.57065,675.80777 C 456.59901,690.46124 453.80195,704.35514 463.73464,719.34121"
       id="path2292" />
    <path
       style="fill:none;fill-opacity:0.75;fill-rule:evenodd;stroke:#000000;stroke-width:1px;stroke-linecap:butt;stroke-linejoin:miter;stroke-opacity:1"
       d="M 470.19341,680.0832 C 468.50197,688.42392 463.46682,701.94106 467.28582,712.72559"
       id="path2294" />
    <path
       style="fill:none;fill-opacity:0.75;fill-rule:evenodd;stroke:#000000;stroke-width:1px;stroke-linecap:butt;stroke-linejoin:miter;stroke-opacity:1"
       d="M 459.76894,677.88079 C 458.63399,683.47733 451.90714,684.42828 456.28664,696.79564 C 457.30446,699.66986 457.67502,702.73371 458.36919,705.70275"
       id="path2296" />
    <path
       style="fill:none;fill-opacity:0.75;fill-rule:evenodd;stroke:#000000;stroke-width:1px;stroke-linecap:butt;stroke-linejoin:miter;stroke-opacity:1"
       d="M 481.32609,687.90147 C 482.28643,690.61335 476.55133,691.23692 474.71998,693.45567 C 466.45802,703.46534 463.20381,709.43023 464.38346,721.76325"
       id="path2298" />
    <path
       style="fill:none;fill-opacity:0.75;fill-rule:evenodd;stroke:#000000;stroke-width:1px;stroke-linecap:butt;stroke-linejoin:miter;stroke-opacity:1"
       d="M 487.60937,695.1303 C 478.56323,706.09 464.16714,714.49677 464.47736,731.18385"
       id="path2300" />
    <path
       style="fill:none;fill-opacity:0.75;fill-rule:evenodd;stroke:#000000;stroke-width:1px;stroke-linecap:butt;stroke-linejoin:miter;stroke-opacity:1"
       d="M 494.99623,689.19065 C 495.02459,690.71712 482.14628,710.3119 480.00787,716.4665 C 478.93499,719.55434 478.31479,722.78133 477.46826,725.93875"
       id="path2302" />
    <path
       style="fill:none;fill-opacity:0.75;fill-rule:evenodd;stroke:#000000;stroke-width:1px;stroke-linecap:butt;stroke-linejoin:miter;stroke-opacity:1"
       d="M 496.50891,689.00006 C 494.56841,694.58504 489.09959,700.25829 487.59119,707.69647 C 486.06654,715.2147 485.63709,718.79762 486.48943,725.76834"
       id="path2304" />
    <path
       style="fill:none;fill-opacity:0.75;fill-rule:evenodd;stroke:#000000;stroke-width:1px;stroke-linecap:butt;stroke-linejoin:miter;stroke-opacity:1"
       d="M 488.41007,695.67316 C 482.97106,702.94102 479.79653,709.26146 476.52649,718.0989"
       id="path2306" />
    <path
       style="fill:none;fill-opacity:0.75;fill-rule:evenodd;stroke:#000000;stroke-width:1px;stroke-linecap:butt;stroke-linejoin:miter;stroke-opacity:1"
       d="M 492.62955,703.74182 C 491.99157,704.59432 490.94993,705.05101 490.11013,705.70562 C 485.10835,709.60429 482.57213,715.70229 480.31971,720.42458"
       id="path2308" />
    <path
       style="fill:none;fill-opacity:0.75;fill-rule:evenodd;stroke:#000000;stroke-width:1px;stroke-linecap:butt;stroke-linejoin:miter;stroke-opacity:1"
       d="M 488.20561,689.04343 C 478.90084,692.33841 473.736,717.27044 470.20156,725.96013"
       id="path2310" />
    <path
       style="fill:none;fill-opacity:0.75;fill-rule:evenodd;stroke:#000000;stroke-width:1px;stroke-linecap:butt;stroke-linejoin:miter;stroke-opacity:1"
       d="M 465.94425,678.13693 C 464.13057,678.77917 462.58082,714.56516 463.1851,718.76389"
       id="path2312" />
    <path
       style="fill:none;fill-opacity:0.75;fill-rule:evenodd;stroke:#000000;stroke-width:1px;stroke-linecap:butt;stroke-linejoin:miter;stroke-opacity:1"
       d="M 505.33146,694.60317 C 502.55531,695.58627 504.84336,700.60397 503.57547,703.26215 C 501.98585,706.59484 503.11663,710.63728 502.66249,714.30164"
       id="path2314" />
    <path
       style="fill:none;fill-opacity:0.75;fill-rule:evenodd;stroke:#000000;stroke-width:1px;stroke-linecap:butt;stroke-linejoin:miter;stroke-opacity:1"
       d="M 472.155,683.21187 C 466.86979,694.29253 458.71012,701.13329 455.96631,714.66344 C 455.65062,716.22005 455.27846,717.76466 454.93455,719.31528"
       id="path2316" />
    <path
       style="fill:none;fill-opacity:0.75;fill-rule:evenodd;stroke:#000000;stroke-width:1px;stroke-linecap:butt;stroke-linejoin:miter;stroke-opacity:1"
       d="M 498.18248,692.80289 C 496.37757,701.70316 494.79416,709.5892 496.10837,718.72041"
       id="path2318" />
    <path
       style="fill:none;fill-opacity:0.75;fill-rule:evenodd;stroke:#000000;stroke-width:1px;stroke-linecap:butt;stroke-linejoin:miter;stroke-opacity:1"
       d="M 504.0432,695.06846 C 503.19761,699.23815 493.88765,704.52577 492.17976,709.98572 C 491.53609,712.04344 489.90492,713.64893 488.7675,715.48055"
       id="path2320" />
    <path
       style="fill:none;fill-opacity:0.75;fill-rule:evenodd;stroke:#000000;stroke-width:1px;stroke-linecap:butt;stroke-linejoin:miter;stroke-opacity:1"
       d="M 454.46191,673.79355 C 455.59766,681.68477 447.60403,695.28064 451.89153,707.38814"
       id="path2322" />
    <path
       style="fill:none;fill-opacity:0.75;fill-rule:evenodd;stroke:#000000;stroke-width:1px;stroke-linecap:butt;stroke-linejoin:miter;stroke-opacity:1"
       d="M 473.28466,684.9914 C 464.10032,694.5237 453.21049,708.05766 444.71721,720.82652"
       id="path2324" />
    <path
       style="fill:#610b09;fill-opacity:1;fill-rule:evenodd;stroke:#000000;stroke-width:0.64006758px;stroke-linecap:butt;stroke-linejoin:miter;stroke-opacity:1"
       d="M 494.07091,641.5113 C 501.20147,646.02562 491.15387,653.44201 484.99566,651.5073 C 478.83745,649.57259 484.67154,638.93168 494.07091,641.5113 z "
       id="path2326" />
    <path
       style="fill:#610b09;fill-opacity:1;fill-rule:evenodd;stroke:#000000;stroke-width:0.70794016px;stroke-linecap:butt;stroke-linejoin:miter;stroke-opacity:1"
       d="M 464.27383,648.68621 C 473.00683,649.41821 477.89732,638.80416 471.95887,636.60815 C 466.02043,634.41214 456.6592,648.01622 464.27383,648.68621 z "
       id="path2328"
       sodipodi:nodetypes="ccc" />
    <path
       sodipodi:type="arc"
       style="opacity:1;fill:#000000;fill-opacity:1;stroke:#00b500;stroke-width:1;stroke-linejoin:bevel;stroke-miterlimit:4;stroke-dasharray:1, 2;stroke-dashoffset:0;stroke-opacity:1"
       id="path2340"
       sodipodi:cx="468.43683"
       sodipodi:cy="565.43439"
       sodipodi:rx="13.696983"
       sodipodi:ry="16.43638"
       d="M 482.13381 565.43439 A 13.696983 16.43638 0 1 1  454.73985,565.43439 A 13.696983 16.43638 0 1 1  482.13381 565.43439 z"
       transform="translate(160.06024,107.80283)" />
  </g>
</svg>
