<?xml version="1.0" encoding="UTF-8" standalone="no"?>
<!-- Created with Inkscape (http://www.inkscape.org/) -->
<svg
   xmlns:dc="http://purl.org/dc/elements/1.1/"
   xmlns:cc="http://web.resource.org/cc/"
   xmlns:rdf="http://www.w3.org/1999/02/22-rdf-syntax-ns#"
   xmlns:svg="http://www.w3.org/2000/svg"
   xmlns="http://www.w3.org/2000/svg"
   xmlns:sodipodi="http://sodipodi.sourceforge.net/DTD/sodipodi-0.dtd"
   xmlns:inkscape="http://www.inkscape.org/namespaces/inkscape"
   width="450"
   height="150"
   id="svg2402"
   sodipodi:version="0.32"
   inkscape:version="0.45.1"
   version="1.0"
   sodipodi:docbase="/home/timonator/coding/pinpediq/artwork"
   sodipodi:docname="logo.svg"
   inkscape:output_extension="org.inkscape.output.svg.inkscape"
   inkscape:export-filename="/home/timonator/coding/pinpediq/artwork/logo.png"
   inkscape:export-xdpi="90"
   inkscape:export-ydpi="90">
  <defs
     id="defs2404" />
  <sodipodi:namedview
     id="base"
     pagecolor="#ffffff"
     bordercolor="#666666"
     borderopacity="1.0"
     inkscape:pageopacity="0.0"
     inkscape:pageshadow="2"
     inkscape:zoom="1"
     inkscape:cx="268.77192"
     inkscape:cy="79.818093"
     inkscape:document-units="px"
     inkscape:current-layer="layer1"
     width="450px"
     height="150px"
     showgrid="false"
     gridcolor="#3f3fff"
     gridopacity="0.41568627"
     inkscape:grid-points="true"
     gridtolerance="15"
     inkscape:window-width="1672"
     inkscape:window-height="964"
     inkscape:window-x="0"
     inkscape:window-y="58" />
  <metadata
     id="metadata2407">
    <rdf:RDF>
      <cc:Work
         rdf:about="">
        <dc:format>image/svg+xml</dc:format>
        <dc:type
           rdf:resource="http://purl.org/dc/dcmitype/StillImage" />
      </cc:Work>
    </rdf:RDF>
  </metadata>
  <g
     inkscape:label="Ebene 1"
     inkscape:groupmode="layer"
     id="layer1">
    <g
       transform="translate(-48.65691,-105.69361)"
       id="g9007">
      <path
         style="fill:#ffffff;fill-opacity:1;fill-rule:evenodd;stroke:#000000;stroke-width:3.97317648;stroke-linecap:butt;stroke-linejoin:round;stroke-miterlimit:4;stroke-dasharray:1.9865882, 1.9865882;stroke-dashoffset:0;stroke-opacity:1"
         d="M 189.37593,180.11491 C 189.37593,207.85881 163.47717,230.37559 131.56621,230.37559 C 99.65525,230.37559 58.090581,226.68086 67.002094,202.3647 C 103.27728,170.82738 90.996765,142.85445 129.03059,133.82741 C 160.74248,130.26853 189.37593,152.37101 189.37593,180.11491 z "
         id="path1872"
         sodipodi:nodetypes="csccc" />
      <path
         sodipodi:type="arc"
         style="opacity:1;fill:#000000;fill-opacity:1;fill-rule:evenodd;stroke:#000000;stroke-width:1;stroke-linecap:butt;stroke-linejoin:round;stroke-miterlimit:4;stroke-dasharray:none;stroke-dashoffset:0;stroke-opacity:1"
         id="path1875"
         sodipodi:cx="240"
         sodipodi:cy="242.36218"
         sodipodi:rx="9"
         sodipodi:ry="8"
         d="M 249 242.36218 A 9 8 0 1 1  231,242.36218 A 9 8 0 1 1  249 242.36218 z"
         transform="matrix(0.355495,0,0,0.355495,62.37908,79.4559)" />
      <path
         transform="matrix(0.355495,0,0,0.355495,80.6557,79.4559)"
         d="M 249 242.36218 A 9 8 0 1 1  231,242.36218 A 9 8 0 1 1  249 242.36218 z"
         sodipodi:ry="8"
         sodipodi:rx="9"
         sodipodi:cy="242.36218"
         sodipodi:cx="240"
         id="path2762"
         style="opacity:1;fill:#000000;fill-opacity:1;fill-rule:evenodd;stroke:#000000;stroke-width:1;stroke-linecap:butt;stroke-linejoin:round;stroke-miterlimit:4;stroke-dasharray:none;stroke-dashoffset:0;stroke-opacity:1"
         sodipodi:type="arc" />
      <path
         transform="matrix(0.397318,0,0,0.397318,79.31894,-62.19913)"
         d="M 281 518.09448 A 15.5 15 0 1 1  250,518.09448 A 15.5 15 0 1 1  281 518.09448 z"
         sodipodi:ry="15"
         sodipodi:rx="15.5"
         sodipodi:cy="518.09448"
         sodipodi:cx="265.5"
         id="path6332"
         style="opacity:1;fill:#ffffff;fill-opacity:1;fill-rule:evenodd;stroke:#000000;stroke-width:10;stroke-linecap:butt;stroke-linejoin:round;stroke-miterlimit:4;stroke-dasharray:5, 5;stroke-dashoffset:0;stroke-opacity:1"
         sodipodi:type="arc" />
      <path
         sodipodi:type="arc"
         style="opacity:1;fill:#ffffff;fill-opacity:1;fill-rule:evenodd;stroke:#000000;stroke-width:10;stroke-linecap:butt;stroke-linejoin:round;stroke-miterlimit:4;stroke-dasharray:5, 5;stroke-dashoffset:0;stroke-opacity:1"
         id="path7219"
         sodipodi:cx="265.5"
         sodipodi:cy="518.09448"
         sodipodi:rx="15.5"
         sodipodi:ry="15"
         d="M 281 518.09448 A 15.5 15 0 1 1  250,518.09448 A 15.5 15 0 1 1  281 518.09448 z"
         transform="matrix(0.397318,0,0,0.397318,23.69447,-2.19913)" />
      <path
         sodipodi:type="star"
         style="opacity:1;fill:#ffffff;fill-opacity:1;fill-rule:evenodd;stroke:#000000;stroke-width:10.44076729;stroke-linecap:butt;stroke-linejoin:round;stroke-miterlimit:4;stroke-dasharray:none;stroke-dashoffset:0;stroke-opacity:1"
         id="path7227"
         sodipodi:sides="3"
         sodipodi:cx="329"
         sodipodi:cy="508.09448"
         sodipodi:r1="5.3426957"
         sodipodi:r2="29.681644"
         sodipodi:arg1="0.56931319"
         sodipodi:arg2="1.6165107"
         inkscape:flatsided="false"
         inkscape:rounded="0"
         inkscape:randomized="0"
         d="M 333.5,510.97448 L 327.64359,537.74512 L 324.25585,510.5516 L 304,492.09448 L 329.24415,502.75737 L 355.35641,494.44385 L 333.5,510.97448 z "
         transform="matrix(0.190272,0,0,0.190272,94.7528,84.2945)" />
    </g>
    <g
       id="g8252"
       transform="matrix(-1,0,0,-1,510,135.5)">
      <path
         inkscape:transform-center-y="3.5294797"
         inkscape:transform-center-x="12.353175"
         sodipodi:nodetypes="ccccccccccccc"
         id="path4367"
         d="M 252.9325,80.132103 L 292.36955,90.720531 L 292.36955,97.77949 L 252.9325,108.36792 L 122.57453,92.869241 L 138.86928,91.277099 L 155.16401,89.684956 L 171.45877,88.092814 L 187.7535,94.94039 C 185.99386,86.811557 176.93921,87.666606 204.04826,84.90853 L 220.34301,83.316387 L 236.63774,94.383822 C 233.44479,82.229113 228.70639,82.108406 252.9325,80.132103 z "
         style="fill:#ffffff;fill-opacity:1;fill-rule:evenodd;stroke:#000000;stroke-width:2;stroke-linecap:butt;stroke-linejoin:miter;stroke-miterlimit:4;stroke-dasharray:none;stroke-opacity:1" />
      <path
         inkscape:transform-center-y="3.5294716"
         inkscape:transform-center-x="-17.647389"
         sodipodi:nodetypes="ccccc"
         id="path4369"
         d="M 282.50253,94.25 L 299.47505,63.943035 L 309.37311,94.25 L 299.47505,124.55696 L 282.50253,94.25 z "
         style="fill:#ffffff;fill-opacity:1;fill-rule:evenodd;stroke:#000000;stroke-width:2;stroke-linecap:butt;stroke-linejoin:miter;stroke-miterlimit:4;stroke-dasharray:none;stroke-opacity:1" />
      <path
         transform="matrix(2.1099296,0,0,2.1099296,-349.85576,-56.974538)"
         d="M 317 71.75 A 4.5 4.5 0 1 1  308,71.75 A 4.5 4.5 0 1 1  317 71.75 z"
         sodipodi:ry="4.5"
         sodipodi:rx="4.5"
         sodipodi:cy="71.75"
         sodipodi:cx="312.5"
         id="path7278"
         style="opacity:1;fill:#ffffff;fill-opacity:1;fill-rule:evenodd;stroke:#000000;stroke-width:0.94789892;stroke-miterlimit:4;stroke-dasharray:none;stroke-dashoffset:0;stroke-opacity:1"
         sodipodi:type="arc" />
    </g>
    <text
       xml:space="preserve"
       style="font-size:32px;font-style:normal;font-weight:normal;fill:#000000;fill-opacity:1;stroke:none;stroke-width:1px;stroke-linecap:butt;stroke-linejoin:miter;stroke-opacity:1;font-family:Dragonwick"
       x="175.09975"
       y="119.20799"
       id="text9226"><tspan
         sodipodi:role="line"
         id="tspan9228"
         x="175.09975"
         y="119.20799">PinpediQuest</tspan></text>
  </g>
</svg>
