<?xml version="1.0" encoding="UTF-8" standalone="no"?>
<!-- Created with Inkscape (http://www.inkscape.org/) -->
<svg
   xmlns:dc="http://purl.org/dc/elements/1.1/"
   xmlns:cc="http://web.resource.org/cc/"
   xmlns:rdf="http://www.w3.org/1999/02/22-rdf-syntax-ns#"
   xmlns:svg="http://www.w3.org/2000/svg"
   xmlns="http://www.w3.org/2000/svg"
   xmlns:sodipodi="http://sodipodi.sourceforge.net/DTD/sodipodi-0.dtd"
   xmlns:inkscape="http://www.inkscape.org/namespaces/inkscape"
   version="1.0"
   width="32"
   height="32"
   id="svg2178"
   sodipodi:version="0.32"
   inkscape:version="0.45.1"
   sodipodi:docname="player.svg"
   sodipodi:docbase="/home/rageon/pinpediq/artwork"
   inkscape:output_extension="org.inkscape.output.svg.inkscape"
   inkscape:export-filename="/home/rageon/pinpediq/artwork/player.png"
   inkscape:export-xdpi="90"
   inkscape:export-ydpi="90">
  <metadata
     id="metadata2235">
    <rdf:RDF>
      <cc:Work
         rdf:about="">
        <dc:format>image/svg+xml</dc:format>
        <dc:type
           rdf:resource="http://purl.org/dc/dcmitype/StillImage" />
      </cc:Work>
    </rdf:RDF>
  </metadata>
  <sodipodi:namedview
     inkscape:window-height="592"
     inkscape:window-width="854"
     inkscape:pageshadow="2"
     inkscape:pageopacity="0.0"
     guidetolerance="10.0"
     gridtolerance="10.0"
     objecttolerance="10.0"
     borderopacity="1.0"
     bordercolor="#666666"
     pagecolor="#ffffff"
     id="base"
     inkscape:zoom="11.8125"
     inkscape:cx="16"
     inkscape:cy="16.118519"
     inkscape:window-x="8"
     inkscape:window-y="102"
     inkscape:current-layer="svg2178" />
  <defs
     id="defs2180">
    <filter
       inkscape:collect="always"
       x="-0.18887784"
       width="1.3777557"
       y="-0.19517377"
       height="1.3903475"
       id="filter3530">
      <feGaussianBlur
         inkscape:collect="always"
         stdDeviation="3.1478897"
         id="feGaussianBlur3532" />
    </filter>
    <filter
       inkscape:collect="always"
       x="-0.18887784"
       width="1.3777557"
       y="-0.19517377"
       height="1.3903475"
       id="filter3534">
      <feGaussianBlur
         inkscape:collect="always"
         stdDeviation="3.1478897"
         id="feGaussianBlur3536" />
    </filter>
    <filter
       inkscape:collect="always"
       x="-0.13294867"
       width="1.2658973"
       y="-0.16475671"
       height="1.3295134"
       id="filter3554">
      <feGaussianBlur
         inkscape:collect="always"
         stdDeviation="7.4868215"
         id="feGaussianBlur3556" />
    </filter>
  </defs>
  <g
     id="layer1"
     transform="matrix(0.9379845,0,0,0.9379845,0.5456707,1.3207823)">
    <g
       transform="matrix(0.2401425,0,0,0.2958838,-14.827377,-36.001253)"
       id="g9007">
      <path
         d="M 190.94428,174.1029 C 190.94428,202.99546 164.72129,226.44448 132.41084,226.44448 C 100.10038,226.44448 58.015363,222.59679 67.038439,197.27388 C 103.76776,164.43085 91.333499,135.29978 129.84347,125.89901 C 161.95237,122.19278 190.94428,145.21035 190.94428,174.1029 z "
         style="fill:#ffffff;fill-opacity:1;fill-rule:evenodd;stroke:#000000;stroke-width:9.0150423;stroke-linecap:butt;stroke-linejoin:round;stroke-miterlimit:4;stroke-dasharray:4.50752095, 4.50752095;stroke-dashoffset:0;stroke-opacity:1;filter:url(#filter3554)"
         id="path1872"
         transform="matrix(0.887324,0,0,0.88728,15.742257,18.76542)" />
      <path
         d="M 281,518.09448 C 281,526.37875 274.06041,533.09448 265.5,533.09448 C 256.93959,533.09448 250,526.37875 250,518.09448 C 250,509.81021 256.93959,503.09448 265.5,503.09448 C 274.06041,503.09448 281,509.81021 281,518.09448 z "
         transform="matrix(0.5205366,0,0,0.4365556,37.505069,-27.643955)"
         style="opacity:1;fill:#ffffff;fill-opacity:1;fill-rule:evenodd;stroke:#000000;stroke-width:9.43802261;stroke-linecap:butt;stroke-linejoin:round;stroke-miterlimit:4;stroke-dasharray:4.71901177, 4.71901177;stroke-dashoffset:0;stroke-opacity:1;filter:url(#filter3534)"
         id="path6332" />
      <path
         d="M 249,242.36218 C 249,246.78046 244.97056,250.36218 240,250.36218 C 235.02944,250.36218 231,246.78046 231,242.36218 C 231,237.9439 235.02944,234.36218 240,234.36218 C 244.97056,234.36218 249,237.9439 249,242.36218 z "
         transform="matrix(0.6621261,0,0,0.6045758,-18.473502,10.655933)"
         style="opacity:1;fill:#000000;fill-opacity:1;fill-rule:evenodd;stroke:#000000;stroke-width:0.63624716;stroke-linecap:butt;stroke-linejoin:round;stroke-miterlimit:4;stroke-dasharray:none;stroke-dashoffset:0;stroke-opacity:1"
         id="path1875" />
      <path
         d="M 249,242.36218 C 249,246.78046 244.97056,250.36218 240,250.36218 C 235.02944,250.36218 231,246.78046 231,242.36218 C 231,237.9439 235.02944,234.36218 240,234.36218 C 244.97056,234.36218 249,237.9439 249,242.36218 z "
         transform="matrix(0.6621261,0,0,0.6045758,9.0476587,10.612494)"
         style="opacity:1;fill:#000000;fill-opacity:1;fill-rule:evenodd;stroke:#000000;stroke-width:0.63624716;stroke-linecap:butt;stroke-linejoin:round;stroke-miterlimit:4;stroke-dasharray:none;stroke-dashoffset:0;stroke-opacity:1"
         id="path2762" />
      <path
         d="M 281,518.09448 C 281,526.37875 274.06041,533.09448 265.5,533.09448 C 256.93959,533.09448 250,526.37875 250,518.09448 C 250,509.81021 256.93959,503.09448 265.5,503.09448 C 274.06041,503.09448 281,509.81021 281,518.09448 z "
         transform="matrix(0.5205366,0,0,0.4365556,-6.3724946,-27.907315)"
         style="opacity:1;fill:#ffffff;fill-opacity:1;fill-rule:evenodd;stroke:#000000;stroke-width:9.43802261;stroke-linecap:butt;stroke-linejoin:round;stroke-miterlimit:4;stroke-dasharray:4.71901176, 4.71901176;stroke-dashoffset:0;stroke-opacity:1;filter:url(#filter3530)"
         id="path7219" />
      <path
         d="M 333.5,510.97448 L 327.64359,537.74512 L 324.25585,510.5516 L 304,492.09448 L 329.24415,502.75737 L 355.35641,494.44385 L 333.5,510.97448 z "
         transform="matrix(0.2787308,0,0,0.2544958,61.46488,48.08368)"
         style="opacity:1;fill:#ffffff;fill-opacity:1;fill-rule:evenodd;stroke:#000000;stroke-width:15.0167675;stroke-linecap:butt;stroke-linejoin:round;stroke-miterlimit:4;stroke-dasharray:none;stroke-dashoffset:0;stroke-opacity:1"
         id="path7227" />
    </g>
  </g>
</svg>
