<?xml version="1.0" encoding="UTF-8" standalone="no"?>
<!-- Created with Inkscape (http://www.inkscape.org/) -->
<svg
   xmlns:svg="http://www.w3.org/2000/svg"
   xmlns="http://www.w3.org/2000/svg"
   version="1.0"
   width="32"
   height="32"
   id="svg2178">
  <defs
     id="defs2180" />
  <g
     id="layer1">
    <g
       transform="matrix(0.2401425,0,0,0.2958838,-14.827377,-36.001253)"
       id="g9007">
      <path
         d="M 190.94428,174.1029 C 190.94428,202.99546 164.72129,226.44448 132.41084,226.44448 C 100.10038,226.44448 58.015363,222.59679 67.038439,197.27388 C 103.76776,164.43085 91.333499,135.29978 129.84347,125.89901 C 161.95237,122.19278 190.94428,145.21035 190.94428,174.1029 z "
         style="fill:#ffffff;fill-opacity:1;fill-rule:evenodd;stroke:#000000;stroke-width:7.50299835;stroke-linecap:butt;stroke-linejoin:round;stroke-miterlimit:4;stroke-dasharray:3.75149926, 3.75149926;stroke-dashoffset:0;stroke-opacity:1"
         id="path1872" />
      <path
         d="M 281 518.09448 A 15.5 15 0 1 1  250,518.09448 A 15.5 15 0 1 1  281 518.09448 z"
         transform="matrix(0.5205366,0,0,0.4365556,37.505069,-27.643955)"
         style="opacity:1;fill:#ffffff;fill-opacity:1;fill-rule:evenodd;stroke:#000000;stroke-width:8.85271931;stroke-linecap:butt;stroke-linejoin:round;stroke-miterlimit:4;stroke-dasharray:4.42635995, 4.42635995;stroke-dashoffset:0;stroke-opacity:1"
         id="path6332" />
      <path
         d="M 249 242.36218 A 9 8 0 1 1  231,242.36218 A 9 8 0 1 1  249 242.36218 z"
         transform="matrix(0.6621261,0,0,0.6045758,-18.473502,10.655933)"
         style="opacity:1;fill:#000000;fill-opacity:1;fill-rule:evenodd;stroke:#000000;stroke-width:0.59678996;stroke-linecap:butt;stroke-linejoin:round;stroke-miterlimit:4;stroke-dasharray:none;stroke-dashoffset:0;stroke-opacity:1"
         id="path1875" />
      <path
         d="M 249 242.36218 A 9 8 0 1 1  231,242.36218 A 9 8 0 1 1  249 242.36218 z"
         transform="matrix(0.6621261,0,0,0.6045758,9.0476587,10.612494)"
         style="opacity:1;fill:#000000;fill-opacity:1;fill-rule:evenodd;stroke:#000000;stroke-width:0.59678996;stroke-linecap:butt;stroke-linejoin:round;stroke-miterlimit:4;stroke-dasharray:none;stroke-dashoffset:0;stroke-opacity:1"
         id="path2762" />
      <path
         d="M 281 518.09448 A 15.5 15 0 1 1  250,518.09448 A 15.5 15 0 1 1  281 518.09448 z"
         transform="matrix(0.5205366,0,0,0.4365556,-6.3724946,-27.907315)"
         style="opacity:1;fill:#ffffff;fill-opacity:1;fill-rule:evenodd;stroke:#000000;stroke-width:8.85271931;stroke-linecap:butt;stroke-linejoin:round;stroke-miterlimit:4;stroke-dasharray:4.42635994, 4.42635994;stroke-dashoffset:0;stroke-opacity:1"
         id="path7219" />
      <path
         d="M 333.5,510.97448 L 327.64359,537.74512 L 324.25585,510.5516 L 304,492.09448 L 329.24415,502.75737 L 355.35641,494.44385 L 333.5,510.97448 z "
         transform="matrix(0.2787308,0,0,0.2544958,61.46488,48.08368)"
         style="opacity:1;fill:#ffffff;fill-opacity:1;fill-rule:evenodd;stroke:#000000;stroke-width:14.085495;stroke-linecap:butt;stroke-linejoin:round;stroke-miterlimit:4;stroke-dasharray:none;stroke-dashoffset:0;stroke-opacity:1"
         id="path7227" />
    </g>
  </g>
</svg>
