<?xml version="1.0" encoding="UTF-8" standalone="no"?>
<!-- Created with Inkscape (http://www.inkscape.org/) -->
<svg
   xmlns:dc="http://purl.org/dc/elements/1.1/"
   xmlns:cc="http://web.resource.org/cc/"
   xmlns:rdf="http://www.w3.org/1999/02/22-rdf-syntax-ns#"
   xmlns:svg="http://www.w3.org/2000/svg"
   xmlns="http://www.w3.org/2000/svg"
   xmlns:sodipodi="http://sodipodi.sourceforge.net/DTD/sodipodi-0.dtd"
   xmlns:inkscape="http://www.inkscape.org/namespaces/inkscape"
   version="1.0"
   width="32"
   height="32"
   id="svg2178"
   sodipodi:version="0.32"
   inkscape:version="0.45.1"
   sodipodi:docname="player.svg"
   sodipodi:docbase="/home/rageon/pinpediq/artwork"
   inkscape:output_extension="org.inkscape.output.svg.inkscape"
   inkscape:export-filename="/home/rageon/pinpediq/artwork/player.png"
   inkscape:export-xdpi="90"
   inkscape:export-ydpi="90">
  <metadata
     id="metadata2235">
    <rdf:RDF>
      <cc:Work
         rdf:about="">
        <dc:format>image/svg+xml</dc:format>
        <dc:type
           rdf:resource="http://purl.org/dc/dcmitype/StillImage" />
      </cc:Work>
    </rdf:RDF>
  </metadata>
  <sodipodi:namedview
     inkscape:window-height="592"
     inkscape:window-width="854"
     inkscape:pageshadow="2"
     inkscape:pageopacity="0.0"
     guidetolerance="10.0"
     gridtolerance="10.0"
     objecttolerance="10.0"
     borderopacity="1.0"
     bordercolor="#666666"
     pagecolor="#ffffff"
     id="base"
     inkscape:zoom="11.8125"
     inkscape:cx="16"
     inkscape:cy="16.118519"
     inkscape:window-x="8"
     inkscape:window-y="102"
     inkscape:current-layer="svg2178" />
  <defs
     id="defs2180">
    <filter
       inkscape:collect="always"
       x="-0.18887784"
       width="1.3777557"
       y="-0.19517377"
       height="1.3903475"
       id="filter3530">
      <feGaussianBlur
         inkscape:collect="always"
         stdDeviation="3.1478897"
         id="feGaussianBlur3532" />
    </filter>
    <filter
       inkscape:collect="always"
       x="-0.18887784"
       width="1.3777557"
       y="-0.19517377"
       height="1.3903475"
       id="filter3534">
      <feGaussianBlur
         inkscape:collect="always"
         stdDeviation="3.1478897"
         id="feGaussianBlur3536" />
    </filter>
    <filter
       inkscape:collect="always"
       id="filter3269">
      <feGaussianBlur
         inkscape:collect="always"
         stdDeviation="3.0351979"
         id="feGaussianBlur3271" />
    </filter>
    <filter
       inkscape:collect="always"
       id="filter3286">
      <feGaussianBlur
         inkscape:collect="always"
         stdDeviation="2.7157465"
         id="feGaussianBlur3288" />
    </filter>
  </defs>
  <path
     d="M 190.94428,174.1029 C 190.94428,202.99546 164.72129,226.44448 132.41084,226.44448 C 100.10038,226.44448 58.015363,222.59679 67.038439,197.27388 C 103.76776,164.43085 91.333499,135.29978 129.84347,125.89901 C 161.95237,122.19278 190.94428,145.21035 190.94428,174.1029 z "
     style="fill:#ffffff;fill-opacity:1;fill-rule:evenodd;stroke:#000000;stroke-width:8.30696788;stroke-linecap:butt;stroke-linejoin:round;stroke-miterlimit:4;stroke-dasharray:4.15348394,4.15348394;stroke-dashoffset:2.4920904;stroke-opacity:1;filter:url(#filter3286)"
     id="path1872"
     transform="matrix(0.2169063,0,0,0.2672408,-11.875505,-30.806526)" />
  <path
     d="M 281,518.09448 C 281,526.37875 274.06041,533.09448 265.5,533.09448 C 256.93959,533.09448 250,526.37875 250,518.09448 C 250,509.81021 256.93959,503.09448 265.5,503.09448 C 274.06041,503.09448 281,509.81021 281,518.09448 z "
     transform="matrix(0.1272451,0,0,0.1314866,-6.5555876,-44.784612)"
     style="fill:#ffffff;fill-opacity:1;fill-rule:evenodd;stroke:#000000;stroke-width:8.69672775;stroke-linecap:butt;stroke-linejoin:round;stroke-miterlimit:4;stroke-dasharray:4.34836441, 4.34836441;stroke-dashoffset:0;stroke-opacity:1;filter:url(#filter3534)"
     id="path6332" />
  <path
     d="M 20.062774,10.883377 C 20.062774,11.687914 19.410582,12.340119 18.606064,12.340119 C 17.801546,12.340119 17.149354,11.687914 17.149354,10.883377 C 17.149354,10.07884 17.801546,9.4266346 18.606064,9.4266346 C 19.410582,9.4266346 20.062774,10.07884 20.062774,10.883377 z "
     style="fill:#000000;fill-opacity:1;fill-rule:evenodd;stroke:#000000;stroke-width:0.10064968;stroke-linecap:butt;stroke-linejoin:round;stroke-miterlimit:4;stroke-dasharray:none;stroke-dashoffset:0;stroke-opacity:1"
     id="path1875" />
  <path
     d="M 26.790319,10.870294 C 26.790319,11.674831 26.138127,12.327036 25.333609,12.327036 C 24.529091,12.327036 23.876899,11.674831 23.876899,10.870294 C 23.876899,10.065757 24.529091,9.4135516 25.333609,9.4135516 C 26.138127,9.4135516 26.790319,10.065757 26.790319,10.870294 z "
     style="fill:#000000;fill-opacity:1;fill-rule:evenodd;stroke:#000000;stroke-width:0.10064968;stroke-linecap:butt;stroke-linejoin:round;stroke-miterlimit:4;stroke-dasharray:none;stroke-dashoffset:0;stroke-opacity:1"
     id="path2762" />
  <path
     d="M 281,518.09448 C 281,526.37875 274.06041,533.09448 265.5,533.09448 C 256.93959,533.09448 250,526.37875 250,518.09448 C 250,509.81021 256.93959,503.09448 265.5,503.09448 C 274.06041,503.09448 281,509.81021 281,518.09448 z "
     transform="matrix(0.1272451,0,0,0.1314866,-17.281454,-44.863934)"
     style="fill:#ffffff;fill-opacity:1;fill-rule:evenodd;stroke:#000000;stroke-width:8.69672775;stroke-linecap:butt;stroke-linejoin:round;stroke-miterlimit:4;stroke-dasharray:4.3483644, 4.3483644;stroke-dashoffset:0;stroke-opacity:1;filter:url(#filter3530)"
     id="path7219" />
  <path
     d="M 22.024647,17.191006 L 21.625616,19.243025 L 21.39479,17.158592 L 20.014643,15.743819 L 21.734672,16.561149 L 23.513849,15.923903 L 22.024647,17.191006 z "
     style="fill:#ffffff;fill-opacity:1;fill-rule:evenodd;stroke:#000000;stroke-width:1.00000012;stroke-linecap:butt;stroke-linejoin:round;stroke-miterlimit:4;stroke-dasharray:none;stroke-dashoffset:0;stroke-opacity:1"
     id="path7227" />
</svg>
